<?xml version="1.0" encoding="UTF-8"?>
<svg id="Layer_1" xmlns="http://www.w3.org/2000/svg" version="1.1" viewBox="0 0 200 200">
  <!-- Generator: Adobe Illustrator 30.6.0, SVG Export Plug-In . SVG Version: 2.1.4 Build 109)  -->
  <path d="M167.587,113.267c-8.611-2.801-12.797-11.295-16.079-19.248-1.001-2.056-1.672-4.212-3.63-6.146-2.228-1.654-4.507-.963-6.831-1.802-12.857-3.734-21.915-15.378-30.249-25.327-2.722-3.458-4.859-7.65-8.814-10.642-5.816-4.533-13.526-4.938-20.502-4.116-4.982.071-9.512,4.31-12.024,8.125-4.02,5.962-9.28,8.211-14.694,13.672-.91.977-1.707,2.679-1.906,3.903-.614,3.019-1.133,5.83-3.721,7.623-1.672,1.223-3.819,2.84-5.349,4.762-3.073,3.568-5.023,8.589-5.695,12.989-2.858,10.946-15.83,15.342-20.475,25.612-1.786,3.484-4.895,10.402.049,12.566.21.965.512,2.116,1.237,3.145.775,1.119,2.292,1.3,3.354,1.35,3.983.079,7.679,1.077,11.427,2.279.924.178.925.43,2.131.351,1.063-.289.972-1.341.707-1.977-.028-.357.296-.488.764-.814,2.622-1.283,6.125-1.903,8.927-1.164,4.125,1.143,7.245,4.439,10.651,7.119,5.532,4.513,12.755,6.87,19.783,7.277,9.256.087,18.053,2.275,27.392,1.307,13.261-2.814,26.013-6.556,39.709-6.726,7.935-.302,16.373-1.389,23.661-4.913,8.287-2.207,16.094-8.819,17.589-17.504.086-8.728-11.767-9.551-17.412-11.7ZM181.026,124.722c-1.721,6.564-8.381,12.004-15.055,13.453-7.155,3.266-14.565,4.085-22.423,4.261-9.125.275-18.333,1.407-27.258,3.616-8.596,2.692-16.731,4.369-25.839,3.192,0,0-6.792-.458-6.792-.458-6.638-.116-13.165.023-19.195-2.82-8.068-3.571-15.032-13.506-24.945-9.738-1.862.574-5.073,1.701-5.082,3.986-1.706-.369-3.731-.79-5.288-1.111-2.268-.4-4.623-.481-6.856-.423-1.116,0-2.153-.024-2.798-.796-.67-.76-1.028-1.823-1.5-2.991-2.278-.952-2.267-3.495-1.72-5.49,3.571-14.072,20.882-17.794,25.162-31.463.967-4.484,2.394-8.034,5.298-11.369,2.03-2.58,5.667-3.933,7.677-6.925,1.455-2.156,1.997-4.701,2.505-7.028.231-.993.447-1.382,1.039-2.095,2.629-2.839,6.786-5.111,10.241-8.525,3.543-3.249,5.75-7.78,8.575-10.184,1.422-1.205,3.144-1.891,5.209-2.206,6.223-1.046,13.157-1.086,18.455,2.637,6.182,5.05,11.585,13.874,18.011,19.747,6.237,6.434,13.113,13.021,22.159,15.69,1.85.721,4.671.449,6.122,1.541,1.25,1.279,2.066,3.575,2.894,5.586,3.025,8.504,7.586,18.06,16.785,21.478,4.394,1.81,8.905,2.577,12.263,4.716,1.66,1.085,2.564,2.304,2.355,3.719Z" fill="#231f20"/>
  <path d="M133.134,89.129c-.255-.89-1.182-1.404-2.075-1.152-2.239.642-7.867.177-9.838-.052-.94-.085-1.755.553-1.863,1.47-.108.92.55,1.755,1.47,1.863.507.059,3.545.399,6.541.399,1.712,0,3.414-.111,4.613-.452.891-.255,1.405-1.185,1.152-2.076Z" fill="#231f20"/>
  <path d="M67.407,78.015l-6.561,3.061c-.838.39-1.202,1.388-.809,2.229.285.609.887.966,1.519.966.239,0,.481-.049.71-.157l6.561-3.061c.838-.39,1.202-1.388.809-2.229-.389-.838-1.391-1.198-2.229-.809Z" fill="#231f20"/>
  <path d="M48.003,108.467h-3.935c-.927,0-1.676.75-1.676,1.676s.75,1.676,1.676,1.676h3.935c.927,0,1.676-.75,1.676-1.676s-.75-1.676-1.676-1.676Z" fill="#231f20"/>
  <path d="M80.286,99.651c0-.927-.75-1.676-1.676-1.676h-6.557c-.926,0-1.676.75-1.676,1.676s.75,1.676,1.676,1.676h6.557c.927,0,1.676-.75,1.676-1.676Z" fill="#231f20"/>
  <path d="M94.788,77.857h-6.557c-.927,0-1.676.75-1.676,1.676s.75,1.676,1.676,1.676h6.557c.926,0,1.676-.75,1.676-1.676s-.75-1.676-1.676-1.676Z" fill="#231f20"/>
  <path d="M113.985,108.686c-3.169-1.814-5.87-2.721-5.984-2.76-.874-.288-1.823.18-2.121,1.061-.291.877.18,1.827,1.061,2.121.023.007,2.517.851,5.382,2.491.262.151.547.219.832.219.579,0,1.146-.301,1.457-.845.458-.802.18-1.827-.625-2.288Z" fill="#231f20"/>
  <path d="M83.17,120.282c-4.511-.524-8.63,2.36-8.806,2.485-.753.534-.933,1.575-.403,2.331.327.465.848.714,1.375.714.334,0,.668-.098.962-.304.033-.02,3.29-2.239,6.498-1.892.953.095,1.751-.56,1.853-1.48.105-.92-.56-1.751-1.48-1.853Z" fill="#231f20"/>
  <path d="M90.385,61.096h2.249c.926,0,1.676-.75,1.676-1.676s-.75-1.676-1.676-1.676h-2.249c-.926,0-1.676.75-1.676,1.676s.75,1.676,1.676,1.676Z" fill="#231f20"/>
  <path d="M110.312,80.483h2.246c.524,0,.949-.426.949-.949s-.426-.949-.949-.949h-2.246c-.524,0-.949.426-.949.949s.426.949.949.949Z" fill="#231f20"/>
  <path d="M126.92,125.589h-1.123c-.524,0-.949.426-.949.949s.426.949.949.949h1.123c.524,0,.949-.426.949-.949s-.426-.949-.949-.949Z" fill="#231f20"/>
  <path d="M169.809,125.589h-1.123c-.524,0-.949.426-.949.949s.426.949.949.949h1.123c.524,0,.949-.426.949-.949s-.426-.949-.949-.949Z" fill="#231f20"/>
  <path d="M62.679,110.503h-1.123c-.524,0-.949.426-.949.949s.426.949.949.949h1.123c.524,0,.949-.426.949-.949s-.426-.949-.949-.949Z" fill="#231f20"/>
  <path d="M27.67,125.589h-1.123c-.524,0-.949.426-.949.949s.426.949.949.949h1.123c.524,0,.949-.426.949-.949s-.426-.949-.949-.949Z" fill="#231f20"/>
  <path d="M44.34,122.894c-.367-.373-.976-.373-1.342,0-.373.37-.373.972,0,1.342l.796.796c.183.187.429.278.671.278s.488-.092.671-.278c.373-.37.373-.972,0-1.342l-.796-.795Z" fill="#231f20"/>
  <path d="M106.731,127.399c-.661-.655-1.725-.645-2.374.01-.651.658-.648,1.722.01,2.373l1.594,1.581c.327.324.756.484,1.182.484.432,0,.864-.164,1.192-.494.652-.658.648-1.722-.01-2.373l-1.594-1.581Z" fill="#231f20"/>
  <path d="M144.949,117.388l-1.876,1.237c-.773.511-.985,1.552-.478,2.324.324.488.858.753,1.401.753.318,0,.638-.088.923-.275l1.876-1.237c.773-.511.985-1.552.478-2.324-.514-.776-1.555-.985-2.324-.478Z" fill="#231f20"/>
  <path d="M135.186,103.275l-1.876,1.237c-.773.511-.985,1.552-.478,2.324.324.488.858.753,1.401.753.318,0,.638-.088.923-.275l1.876-1.237c.773-.511.985-1.552.478-2.324-.514-.776-1.552-.985-2.324-.478Z" fill="#231f20"/>
</svg>